<svg xmlns="http://www.w3.org/2000/svg" xmlns:xlink="http://www.w3.org/1999/xlink" width="269" height="263.856" viewBox="0 0 269 263.856">
  <defs>
    <clipPath id="clip-path">
      <path id="Path_1857" data-name="Path 1857" d="M278.744,12.525c-16.229,9.207-25.3,79.031-37.574,93.087-9.4,10.766,30.839,39.5,30.475,53.787a62.532,62.532,0,0,0,13.24,39.881c13.705,17.416,36.131,26.343,58.242,27.838,32.485,2.2,65.5-10.663,88.63-33.576s56.785-48.754,57.046-81.313c.135-16.812,8.7-28.51,0-42.9s10.717-36.014-5.917-38.461c-14.864-2.186,3.436-45.287-6.8-34.615C475.606-3.252,440.4-36,439.691-36c-6.919.532-67.525,10.72-76.627,19.231C356.6-10.722,286.424,8.169,278.744,12.525Z" transform="translate(-181.183 187.824)" fill="#c9d9e1"/>
    </clipPath>
  </defs>
  <g id="Group_16282" data-name="Group 16282" transform="translate(-52.5 -170.304)">
    <line id="Line_97" data-name="Line 97" x2="269" transform="translate(52.5 433.66)" fill="none" stroke="#c8c8c8" stroke-width="1"/>
    <g id="Mask_Group_9" data-name="Mask Group 9" transform="translate(5.961 18.477)" clip-path="url(#clip-path)">
      <g id="Group_16280" data-name="Group 16280" transform="translate(-181.183 187.595)">
        <path id="Path_1810" data-name="Path 1810" d="M333.159,89.281c-16.229,9.207-33.983,16.909-46.255,30.965a61.939,61.939,0,0,0-2.018,79.033c13.705,17.416,36.131,26.343,58.242,27.838,32.485,2.2,65.5-10.663,88.63-33.576s36.245-55.371,36.506-87.93c.135-16.812-3.15-33.98-11.845-48.37S433.16,31.543,416.526,29.1c-14.864-2.186-29.037,3.483-39.278,14.155-8.965,9.343-12.88,21.715-22.492,30.7A112.811,112.811,0,0,1,333.159,89.281Z" transform="translate(0 0.229)" fill="#c9d9e1"/>
        <g id="Group_16278" data-name="Group 16278" transform="translate(278.745 14.965)">
          <g id="Group_16269" data-name="Group 16269" transform="translate(58.325)">
            <g id="Group_16264" data-name="Group 16264" transform="translate(7.197 15.545)">
              <path id="Path_1811" data-name="Path 1811" d="M383.06,59.874a28.555,28.555,0,0,1-28.5,21.759,9.292,9.292,0,0,1-5.8-1.688c-1.687-1.4-2.378-3.64-2.9-5.765a94.415,94.415,0,0,1-1.974-10.615c-.263-2.156-.468-4.311-.6-6.477a122.861,122.861,0,0,1,.834-23.274,53.98,53.98,0,0,1,20.539-3.549A39.95,39.95,0,0,1,375.149,31.6a17.044,17.044,0,0,1,8.7,5.674C383.792,44.754,384.839,52.6,383.06,59.874Z" transform="translate(-343.07 -30.254)" fill="#f9ac77"/>
              <path id="Path_1812" data-name="Path 1812" d="M384.97,95.426c-3.131,3.8-6.852,7.148-11.448,8.917a20.732,20.732,0,0,1-14.448.325,16.523,16.523,0,0,1-9.914-10.442A44.032,44.032,0,0,0,351.183,89a42.3,42.3,0,0,0,1.739-7.992c.519.061,1.027.092,1.535.1a28.846,28.846,0,0,0,18.088-5.846,28.266,28.266,0,0,0,5.582-5.7,28.589,28.589,0,0,0,4.23-8.154c.01,0,.01,0,.02-.01C381.585,72.518,381.564,84.811,384.97,95.426Z" transform="translate(-342.967 -29.731)" fill="#f9ac77"/>
              <path id="Path_1813" data-name="Path 1813" d="M380.792,61.573a8.775,8.775,0,0,0,9.429-11.448,5.148,5.148,0,0,0-2.055-2.868,4.557,4.557,0,0,0-4.113-.117,8.921,8.921,0,0,0-3.266,2.69Z" transform="translate(-342.437 -29.978)" fill="#f9ac77"/>
            </g>
            <g id="Group_16265" data-name="Group 16265">
              <path id="Path_1814" data-name="Path 1814" d="M388.6,39.477a56.412,56.412,0,0,1-2.157,7.6,5.074,5.074,0,0,0-2.288.427,8.784,8.784,0,0,0-3.181,2.583A24.914,24.914,0,0,1,374.7,35.715c-.305-3.355,2.827-6.772,5.48-8.836a5.823,5.823,0,0,1,3.589-1.444,4.438,4.438,0,0,1,3.1,1.627,8.23,8.23,0,0,1,1.587,3.2A20.132,20.132,0,0,1,388.6,39.477Z" transform="translate(-335.342 -14.789)" fill="#25262b"/>
              <path id="Path_1815" data-name="Path 1815" d="M376.545,34.689A24.931,24.931,0,0,1,365,40.2a40.542,40.542,0,0,1-12.88.313,20.273,20.273,0,0,1-8.989-2.8,15.26,15.26,0,0,1-5.6-7.536,29.733,29.733,0,0,1-1.538-9.38,17.573,17.573,0,0,0,14.426,2.5c3.842-1.054,7.164-3.417,10.644-5.357s7.454-3.521,11.371-2.787a10.874,10.874,0,0,1,7,4.755,11.89,11.89,0,0,1,1.682,8.335C380.685,30.818,378.506,32.96,376.545,34.689Z" transform="translate(-335.991 -14.965)" fill="#25262b"/>
              <path id="Path_1816" data-name="Path 1816" d="M343.195,53.986a23.363,23.363,0,0,1-2.084-19.491,11.935,11.935,0,0,1,2.857,1A124.788,124.788,0,0,0,343.195,53.986Z" transform="translate(-335.926 -14.637)" fill="#25262b"/>
            </g>
            <g id="Group_16267" data-name="Group 16267" transform="translate(7.421 36.532)">
              <path id="Path_1824" data-name="Path 1824" d="M386.056,50.969a11.825,11.825,0,0,0-5.195,6.5c-.167.514.491.807.849.5a7.736,7.736,0,0,1,4.346-2.171c.649-.049.654-1.066,0-1.017a7.442,7.442,0,0,0-3.492,1.271,10.77,10.77,0,0,1,4.005-4.2A.509.509,0,0,0,386.056,50.969Z" transform="translate(-342.66 -50.895)" fill="#ea792b"/>
              <path id="Path_1825" data-name="Path 1825" d="M378.094,69.425a23.619,23.619,0,0,1-9.5,14.123,30.82,30.82,0,0,1-17.448,5.318,42.3,42.3,0,0,0,1.739-7.992c.519.061,1.027.092,1.535.1a28.846,28.846,0,0,0,18.088-5.846A28.266,28.266,0,0,0,378.094,69.425Z" transform="translate(-343.158 -50.584)" fill="#ea792b"/>
            </g>
            <g id="Group_16268" data-name="Group 16268" transform="translate(3.35 3.609)">
              <path id="Path_1826" data-name="Path 1826" d="M372.8,32.11A36.116,36.116,0,0,1,358.409,36.9c-4.78.624-9.892.282-13.926-2.608a11.152,11.152,0,0,1-4.189-5.549c-.2-.619-1.184-.354-.981.27,1.381,4.259,5.222,7.239,9.432,8.432,5.259,1.491,11.069.589,16.235-.87a32.324,32.324,0,0,0,8.335-3.592C373.87,32.643,373.36,31.763,372.8,32.11Z" transform="translate(-339.286 -18.349)" fill="#3c3c40"/>
              <path id="Path_1827" data-name="Path 1827" d="M377.5,21.14c-2.472-3.774-8.073-2.74-11.617-1.441-2.307.845-4.493,1.987-6.793,2.846a33.069,33.069,0,0,1-7.426,1.642c-.641.082-.649,1.1,0,1.017a35.784,35.784,0,0,0,6.8-1.36c2.192-.729,4.258-1.772,6.389-2.654a18.327,18.327,0,0,1,6.58-1.645c1.9-.035,4.082.413,5.193,2.109C376.975,22.2,377.856,21.689,377.5,21.14Z" transform="translate(-339.087 -18.514)" fill="#3c3c40"/>
              <path id="Path_1828" data-name="Path 1828" d="M376.77,28.486a6.5,6.5,0,0,0-4.346-2.667,15.026,15.026,0,0,0-5.916-.023c-4.255.761-7.907,3.184-12.072,4.2-2.095.512-5.142.848-6.837-.81-.469-.458-1.189.261-.719.719a6.824,6.824,0,0,0,5.182,1.477,18.714,18.714,0,0,0,5.99-1.531c3.881-1.577,7.69-3.477,12-3.317,2.025.075,4.7.579,5.842,2.465A.509.509,0,0,0,376.77,28.486Z" transform="translate(-339.161 -18.397)" fill="#3c3c40"/>
              <path id="Path_1829" data-name="Path 1829" d="M381.207,44.964a16.313,16.313,0,0,1-3.129-9.258.509.509,0,0,0-1.017,0,17.247,17.247,0,0,0,3.268,9.771C380.711,46,381.594,45.495,381.207,44.964Z" transform="translate(-338.653 -18.234)" fill="#3c3c40"/>
              <path id="Path_1830" data-name="Path 1830" d="M383.588,31.759c-.235-.6-1.218-.341-.981.271A23.255,23.255,0,0,1,383.971,43.8c-.094.641.886.917.98.27A24.277,24.277,0,0,0,383.588,31.759Z" transform="translate(-338.56 -18.298)" fill="#3c3c40"/>
            </g>
          </g>
          <g id="Group_16271" data-name="Group 16271" transform="translate(9.347 80.04)">
            <path id="Path_1831" data-name="Path 1831" d="M428.165,178.077c-.051.336-.1.661-.153.986a18.379,18.379,0,0,1-2.176,6.151,15.31,15.31,0,0,1-18.515,6.1c.183,1.078.356,2.166.529,3.243q.595,3.828,1.078,7.666c.041.325.081.661.122.986.742,5.948,1.261,11.9,1.546,17.885.01.346.031.7.041,1.047q.2,4.514.193,9.07c-8.449,5.755-18.251,8.9-28.368,10.371s-20.386,1.322-30.595.9c-12.588-.519-25.673-1.576-36.534-7.961-.8-4.179-1.453-8.409-1.961-12.659-.041-.346-.081-.691-.132-1.047-.681-5.928-1.1-11.906-1.261-17.875-.01-.356-.02-.7-.03-1.047,0-.173-.01-.356-.01-.529q-.137-6.1.071-12.15c-5.257,1.322-10.7-2.6-13.6-7.189-.122-.193-.235-.376-.346-.569-.184-.305-.356-.61-.508-.925-2.237-4.26-3-9.181-3.721-13.981-.224-1.464-.437-2.928-.661-4.392-.051-.325-.091-.661-.142-.986q-1.449-9.578-2.878-19.156c-.051-.346-.1-.681-.154-1.027q-1.083-7.26-2.175-14.509c4.474,1.129,9.883.386,13.573-2.379,1.841,4.789,5.115,11.683,6.956,16.472,1.362-4.575,3-9.639,4.728-14.54v-.01c.132-.366.254-.722.386-1.088.915-2.562,1.851-5.064,2.786-7.422a43.918,43.918,0,0,1,5.033-9.222c.285-.417.58-.824.895-1.22a34.894,34.894,0,0,1,8.317-7.931c5.541-3.65,13.076-5.023,19.695-5.46a16.523,16.523,0,0,0,9.914,10.442,20.732,20.732,0,0,0,14.448-.325c4.6-1.769,8.317-5.114,11.448-8.917,9.294,0,19.309,3.04,26.071,9.415.549.529,1.078,1.078,1.566,1.647.244.275.478.549.7.834a41.018,41.018,0,0,1,5.868,10.757c.732,1.871,1.4,3.752,2.012,5.663.1.325.2.651.306.986a117.019,117.019,0,0,1,3.782,17.041c.051.376.111.742.152,1.118.865,6.04,1.352,12.161,1.648,18.282.02.356.041.7.051,1.057q.182,3.874.285,7.738A53.417,53.417,0,0,1,428.165,178.077Z" transform="translate(-287.82 -93.685)" fill="#fff"/>
            <g id="Group_16270" data-name="Group 16270" transform="translate(18.342 0.951)">
              <path id="Path_1833" data-name="Path 1833" d="M323.154,116.21c-.687,1.925-1.268,3.881-1.8,5.852a15.939,15.939,0,0,1-.422-6.188.512.512,0,0,0-.508-.508.52.52,0,0,0-.508.508,16.561,16.561,0,0,0,.953,8l0,0c-.542,2.136-1.033,4.288-1.5,6.441q-1.557,7.17-2.829,14.4-2.544,14.458-3.946,29.089-.795,8.3-1.216,16.619c-.033.654.984.653,1.017,0q.747-14.655,2.641-29.224,1.9-14.545,4.949-28.911a122.165,122.165,0,0,1,4.154-15.812C324.356,115.863,323.374,115.6,323.154,116.21Z" transform="translate(-305.767 -94.273)" fill="#b7b7b7"/>
              <path id="Path_1834" data-name="Path 1834" d="M311.407,149.14q-2.157-7.1-4.537-14.121c-.209-.616-1.192-.352-.981.27q2.382,7.023,4.538,14.121C310.616,150.034,311.6,149.769,311.407,149.14Z" transform="translate(-305.859 -93.949)" fill="#b7b7b7"/>
              <path id="Path_1835" data-name="Path 1835" d="M412.942,166.238a39.352,39.352,0,0,0-7.786-4.268c-1.789-.777-3.588-1.528-5.39-2.276v-.012a210.6,210.6,0,0,1-1.648-26.545q.006-3.81.151-7.62c.024-.654-.992-.653-1.017,0-.062,1.657-.085,3.315-.109,4.972a17.877,17.877,0,0,1-1.645-6.176c-.052-.648-1.069-.653-1.017,0a19.108,19.108,0,0,0,2.579,8.207.559.559,0,0,0,.051.058q-.04,9.775.822,19.526.32,3.58.767,7.145-.988-.409-1.974-.821c-5.733-2.4-11.472-4.8-17.359-6.805a105.4,105.4,0,0,0-10.213-2.943c-.637-.147-.909.833-.27.98a126.17,126.17,0,0,1,17.593,5.659c5.816,2.281,11.578,4.718,17.325,7.165a42.109,42.109,0,0,1,8.629,4.629C412.956,167.505,413.464,166.623,412.942,166.238Z" transform="translate(-304.808 -94.131)" fill="#b7b7b7"/>
              <path id="Path_1836" data-name="Path 1836" d="M406.277,189.437Q389.21,179.184,372.8,167.879a52.707,52.707,0,0,1-8.262-6.7c-.453-.474-1.172.246-.719.719a48.507,48.507,0,0,0,7.149,5.934c2.7,1.907,5.444,3.751,8.188,5.59q8.385,5.62,16.948,10.972,4.8,3,9.657,5.918A.509.509,0,0,0,406.277,189.437Z" transform="translate(-304.89 -93.507)" fill="#b7b7b7"/>
              <path id="Path_1837" data-name="Path 1837" d="M389.422,96.17a21.374,21.374,0,0,1-7.183,7.735,37.692,37.692,0,0,1-10.071,5.132,22.647,22.647,0,0,1-11.038.847,19.279,19.279,0,0,1-9.641-4.805,17.721,17.721,0,0,1-5.367-10.089c-.1-.644-1.083-.37-.981.27A19.264,19.264,0,0,0,359.3,110.507c7.816,2.108,15.778-.7,22.334-4.973,3.482-2.27,6.778-5.072,8.663-8.851C390.592,96.1,389.715,95.583,389.422,96.17Z" transform="translate(-305.201 -94.621)" fill="#b7b7b7"/>
            </g>
          </g>
          <g id="Group_16273" data-name="Group 16273" transform="translate(58.787 115.489)">
            <path id="Path_1841" data-name="Path 1841" d="M369.253,148.9a11.509,11.509,0,0,1-.074,7.008,11.334,11.334,0,0,1-4.128,5.591,12.849,12.849,0,0,1-7.855-7.673,5.186,5.186,0,0,1-3.008,1.83c-.072.454,0,.9-.07,1.352a3.058,3.058,0,0,1,2.208.977,2.71,2.71,0,0,1,.609,2.183c-.1.575-.675.862-1.242,1a13.067,13.067,0,0,1-2.711-1.146,4.463,4.463,0,0,1-2.031-2.09,7.98,7.98,0,0,1-.424-2.936c-.19.742-.533,1.409-.724,2.15-.184.718.2,1.5-.112,2.175a1.93,1.93,0,0,1-1.736,1.173,2.04,2.04,0,0,1-1.682-1.434,5.987,5.987,0,0,1-.188-2.32c.038-.74.019-1.578.039-2.319.292.611-.5,1.5-1.162,1.616a1.811,1.811,0,0,1-1.72-.85,4.53,4.53,0,0,1-.62-1.915,22.525,22.525,0,0,1,.368-8.108c.385-1.74,2.721-2.374,4.45-2.8a13.664,13.664,0,0,1-2.506-4.373,7.51,7.51,0,0,1-3.848-3.926,6.915,6.915,0,0,1-4.212-3.133,2.542,2.542,0,0,1-.427-1.208,1.149,1.149,0,0,1,.579-1.079,1.754,1.754,0,0,1,1.335.111C349.856,132.979,359.937,140.941,369.253,148.9Z" transform="translate(-336.445 -128.549)" fill="#f9ac77"/>
            <g id="Group_16272" data-name="Group 16272" transform="translate(8.129 12.5)">
              <path id="Path_1842" data-name="Path 1842" d="M353.169,146.853c-1.337.768-2.67,1.653-3.108,3.222a11.451,11.451,0,0,0-.307,2.645,20.974,20.974,0,0,0,.115,2.968c.069.643,1.087.651,1.017,0a16.313,16.313,0,0,1,.089-5.067c.312-1.457,1.5-2.2,2.708-2.891A.509.509,0,0,0,353.169,146.853Z" transform="translate(-344.351 -140.743)" fill="#ba6450"/>
              <path id="Path_1843" data-name="Path 1843" d="M349.131,144.674a8.18,8.18,0,0,0-2.244,1.237,3.773,3.773,0,0,0-1.225,2.34,21.72,21.72,0,0,0-.16,3q-.029,1.7,0,3.4a.509.509,0,0,0,1.017,0c-.032-1.875-.066-3.775.073-5.647a3.324,3.324,0,0,1,.805-2.176,5.972,5.972,0,0,1,2-1.167C350,145.406,349.735,144.421,349.131,144.674Z" transform="translate(-344.423 -140.779)" fill="#ba6450"/>
              <path id="Path_1844" data-name="Path 1844" d="M350.845,141.209a.52.52,0,0,0-.625-.355,25.581,25.581,0,0,0-5.531,1.721.512.512,0,0,0-.183.7.523.523,0,0,0,.7.183,24.532,24.532,0,0,1,5.287-1.62A.513.513,0,0,0,350.845,141.209Z" transform="translate(-344.44 -140.843)" fill="#ba6450"/>
            </g>
          </g>
          <g id="Group_16277" data-name="Group 16277" transform="translate(0 63.148)">
            <g id="Group_16274" data-name="Group 16274" transform="translate(2.472)">
              <path id="Path_1845" data-name="Path 1845" d="M309.534,119.819H294.212a4.482,4.482,0,0,1-4.1-3.288l-8.951-36.172a2.489,2.489,0,0,1,2.475-3.288h15.322a4.483,4.483,0,0,1,4.1,3.288l8.951,36.172A2.489,2.489,0,0,1,309.534,119.819Z" transform="translate(-281.059 -77.071)" fill="#30569f"/>
              <path id="Path_1846" data-name="Path 1846" d="M296.657,82.187a2.73,2.73,0,0,0,2.5,2,1.517,1.517,0,0,0,1.508-2,2.73,2.73,0,0,0-2.5-2A1.516,1.516,0,0,0,296.657,82.187Z" transform="translate(-280.798 -77.019)" fill="#5e83c9"/>
              <path id="Path_1847" data-name="Path 1847" d="M292.384,82.177a1.91,1.91,0,0,0,1.749,1.4,1.06,1.06,0,0,0,1.054-1.4,1.91,1.91,0,0,0-1.749-1.4A1.062,1.062,0,0,0,292.384,82.177Z" transform="translate(-280.869 -77.009)" fill="#5e83c9"/>
            </g>
            <path id="Path_1848" data-name="Path 1848" d="M302.958,119.314a13.147,13.147,0,0,1-1.414,4.565c-3.69,2.766-9.1,3.508-13.573,2.379-3.549-6.2-7.86-13.015-9.171-18.942a44.114,44.114,0,0,1,9.334.58l2.012,8.124a4.484,4.484,0,0,0,4.108,3.294Z" transform="translate(-278.625 -76.565)" fill="#f9ac77"/>
            <g id="Group_16276" data-name="Group 16276" transform="translate(0 12.891)">
              <path id="Path_1849" data-name="Path 1849" d="M297.805,105.482a3.5,3.5,0,0,0-2.288-.026c-.988.23-1.973.473-2.959.709l-1.377.329,1.222-.513q1.7-.712,3.392-1.424a6.749,6.749,0,0,0,2.335-1.349,2.6,2.6,0,0,0,.8-2.166,1.406,1.406,0,0,0-1.552-1.246,18.235,18.235,0,0,0-3.179.749c-.4.11-.791.245-1.189.364.341-.161.68-.324,1.022-.484a22.407,22.407,0,0,0,2.921-1.4,2.263,2.263,0,0,0,1.139-1.963,1.73,1.73,0,0,0-1.44-1.511,6.59,6.59,0,0,0-2.971.482c-1.057.287-2.111.583-3.157.906-.662.2-1.317.424-1.969.655a18.694,18.694,0,0,1,3.02-2.36c1.152-.612,2.357-.725,3.188-1.836a3.764,3.764,0,0,0,.6-3.277.517.517,0,0,0-.624-.355,36.835,36.835,0,0,0-7.623,2.728,24.867,24.867,0,0,0-3.375,1.9,6.545,6.545,0,0,0-2.206,2.908,34.143,34.143,0,0,0-2.789,7.736,5.769,5.769,0,0,0,.43,3.635,9.428,9.428,0,0,0,1.99,2.805c1.53,1.492,4.439,3.073,6.181,1.224L292.763,111a16.714,16.714,0,0,0,5.01-2.038C298.954,108.089,299.385,106.216,297.805,105.482Z" transform="translate(-278.628 -89.749)" fill="#f9ac77"/>
              <g id="Group_16275" data-name="Group 16275" transform="translate(3.311 7.302)">
                <path id="Path_1850" data-name="Path 1850" d="M289.858,111.485a.513.513,0,0,0-.625-.355,31.337,31.337,0,0,1-4.762,1.414.508.508,0,1,0,.27.98,31.414,31.414,0,0,0,4.762-1.413A.524.524,0,0,0,289.858,111.485Z" transform="translate(-281.847 -96.694)" fill="#ba6450"/>
                <path id="Path_1851" data-name="Path 1851" d="M291.3,105.6q-3.609,1.379-7.237,2.7c-.61.223-.346,1.206.271.981q3.628-1.327,7.237-2.706C292.18,106.353,291.917,105.37,291.3,105.6Z" transform="translate(-281.854 -96.786)" fill="#ba6450"/>
                <path id="Path_1852" data-name="Path 1852" d="M292.894,100.4c-1.688.461-3.414.855-5.074,1.41a25.247,25.247,0,0,0-4.51,2.334.509.509,0,0,0,.512.878,23.228,23.228,0,0,1,4.428-2.285c1.615-.517,3.277-.911,4.914-1.358A.509.509,0,0,0,292.894,100.4Z" transform="translate(-281.865 -96.873)" fill="#ba6450"/>
                <path id="Path_1853" data-name="Path 1853" d="M289.028,97.313a.514.514,0,0,0-.626-.356c-2.192.88-4.8,1.244-6.374,3.185a.524.524,0,0,0,0,.719.512.512,0,0,0,.719,0c1.458-1.8,3.9-2.109,5.926-2.922A.526.526,0,0,0,289.028,97.313Z" transform="translate(-281.884 -96.931)" fill="#ba6450"/>
              </g>
            </g>
          </g>
          <path id="Path_1854" data-name="Path 1854" d="M410.238,220.48c-.01-.346-.03-.7-.041-1.047-.285-5.989-.8-11.937-1.546-17.885-.041-.325-.081-.661-.122-.986q-.488-3.843-1.078-7.666a91.889,91.889,0,0,1-17.011,10.086,95.543,95.543,0,0,1-21.861,6.955,92.368,92.368,0,0,1-22.318,1.576,71.589,71.589,0,0,1-20.6-4.067,51.491,51.491,0,0,1-14.123-7.738c0,.173.01.356.01.529.01.346.02.691.03,1.047.163,5.968.58,11.947,1.261,17.875.051.356.091.7.132,1.047.508,4.25,1.159,8.48,1.961,12.659,10.86,6.385,23.946,7.443,36.534,7.961,10.208.417,20.487.569,30.595-.9s19.918-4.616,28.368-10.371Q410.431,224.989,410.238,220.48Z" transform="translate(-278.076 -11.981)" fill="#c9d9e1" opacity="0.53" style="mix-blend-mode: multiply;isolation: isolate"/>
        </g>
        <g id="Group_16279" data-name="Group 16279" transform="translate(277.192 42.779)">
          <path id="Path_1855" data-name="Path 1855" d="M287.632,63.382h16.43a10.562,10.562,0,0,0,10.531-10.532h0A10.561,10.561,0,0,0,304.062,42.32h-16.43A10.562,10.562,0,0,0,277.1,52.851h0A10.563,10.563,0,0,0,287.632,63.382Z" transform="translate(-277.1 -42.32)" fill="#c9d9e1"/>
          <path id="Path_1856" data-name="Path 1856" d="M303.7,63.035l-5.081,6.5v-6.5Z" transform="translate(-276.739 -41.973)" fill="#efedef"/>
        </g>
      </g>
    </g>
    <g id="Group_16260" data-name="Group 16260" transform="translate(-523.595 -1505.27)">
      <path id="Union_1" data-name="Union 1" d="M13,50.825H5a5,5,0,0,1-5-5V5A5,5,0,0,1,5,0H47.065a5,5,0,0,1,5,5V45.824a5,5,0,0,1-5,5H27.814L13,65.409Z" transform="translate(748.682 1711.27)" fill="#ffc34f"/>
      <rect id="Rectangle_1224" data-name="Rectangle 1224" width="36" height="36" rx="12" transform="translate(782.595 1748.595)" fill="#ff795e"/>
    </g>
  </g>
</svg>
